<?xml version="1.0" standalone="no"?>
<!DOCTYPE svg PUBLIC "-//W3C//DTD SVG 20010904//EN"
 "http://www.w3.org/TR/2001/REC-SVG-20010904/DTD/svg10.dtd">
<svg version="1.0" xmlns="http://www.w3.org/2000/svg"
 width="512.000000pt" height="512.000000pt" viewBox="0 0 512.000000 512.000000"
 preserveAspectRatio="xMidYMid meet">

<g transform="translate(0.000000,512.000000) scale(0.100000,-0.100000)"
fill="#000000" stroke="none">
<path d="M845 4904 c-195 -47 -376 -195 -465 -379 -73 -152 -70 -111 -70
-1074 l0 -863 -48 -56 c-136 -159 -222 -352 -252 -567 -8 -54 -10 -303 -8
-771 l3 -690 38 -76 c43 -88 107 -152 195 -195 52 -26 67 -28 167 -28 99 0
116 3 168 27 81 38 161 117 199 197 29 60 32 77 36 184 l4 117 1748 0 1748 0
4 -118 c4 -106 7 -123 36 -183 38 -80 118 -159 199 -197 52 -24 69 -27 168
-27 100 0 115 2 167 28 88 43 152 107 195 195 l38 76 3 695 c2 579 0 712 -12
791 -33 212 -128 412 -265 562 l-51 56 0 849 c0 818 -1 853 -20 929 -53 209
-190 377 -384 468 -148 70 -24 66 -1842 65 -1395 -1 -1648 -3 -1699 -15z
m3364 -199 c185 -49 332 -201 370 -383 7 -36 11 -294 11 -802 l0 -749 -92 44
-93 44 -6 218 c-6 219 -10 246 -52 344 -39 88 -144 197 -237 244 -118 60 -119
60 -680 60 -472 0 -520 -2 -575 -18 -93 -29 -174 -77 -237 -139 l-58 -58 -58
58 c-63 63 -166 122 -252 143 -43 11 -166 14 -565 14 -467 0 -515 -2 -570 -18
-175 -54 -308 -179 -366 -347 -21 -58 -24 -88 -27 -282 l-4 -217 -96 -48 c-54
-26 -100 -49 -104 -51 -5 -2 -8 340 -8 760 0 828 -1 809 56 927 33 68 139 176
210 213 111 60 16 57 1769 57 1365 1 1618 -1 1664 -14z m-1941 -1213 c67 -36
129 -98 159 -161 27 -53 28 -64 31 -228 l4 -172 -749 -4 c-411 -2 -759 -7
-771 -12 l-24 -8 4 179 c3 172 4 181 32 242 35 76 104 142 179 171 50 20 72
20 572 18 l520 -2 43 -23z m1716 8 c76 -29 139 -88 178 -168 l33 -67 3 -179 4
-179 -24 8 c-12 5 -360 10 -771 12 l-749 4 4 172 c3 149 6 178 25 219 39 85
126 162 213 189 14 4 251 8 527 8 482 1 504 0 557 -19z m271 -808 c161 -47
344 -163 444 -282 111 -132 189 -310 211 -481 5 -46 10 -154 10 -241 l0 -158
-510 0 c-436 0 -515 -2 -540 -15 -37 -19 -50 -43 -50 -92 0 -31 7 -46 31 -69
l30 -29 520 -3 519 -3 0 -194 0 -195 -2360 0 -2360 0 0 195 0 195 1360 0
c1153 0 1366 2 1395 14 67 29 83 116 29 167 l-26 24 -1380 3 -1381 2 6 213 c4
144 11 233 22 277 87 355 353 613 705 685 53 11 370 13 1655 12 l1590 -2 80
-23z m-3645 -2050 c0 -107 -23 -160 -89 -207 -38 -27 -51 -30 -115 -30 -93 0
-141 28 -180 106 -22 44 -26 66 -26 136 l0 83 205 0 205 0 0 -88z m4310 5 c0
-152 -67 -237 -194 -245 -78 -4 -138 24 -181 86 -28 40 -30 52 -33 143 l-4 99
206 0 206 0 0 -83z"/>
<path d="M3367 1514 c-56 -31 -66 -112 -21 -158 65 -64 174 -15 174 78 0 65
-94 114 -153 80z"/>
</g>
</svg>
