<?xml version="1.0" standalone="no"?>
<!DOCTYPE svg PUBLIC "-//W3C//DTD SVG 20010904//EN"
 "http://www.w3.org/TR/2001/REC-SVG-20010904/DTD/svg10.dtd">
<svg version="1.0" xmlns="http://www.w3.org/2000/svg"
 width="512.000000pt" height="512.000000pt" viewBox="0 0 512.000000 512.000000"
 preserveAspectRatio="xMidYMid meet">

<g transform="translate(0.000000,512.000000) scale(0.100000,-0.100000)"
fill="#000000" stroke="none">
<path d="M2170 5104 c-145 -31 -297 -138 -382 -268 -113 -174 -122 -416 -22
-606 19 -36 117 -171 219 -301 201 -258 225 -279 316 -279 51 0 115 27 146 61
65 72 366 471 393 520 17 32 39 92 50 135 110 430 -283 833 -720 738z m209
-194 c75 -14 148 -54 207 -112 126 -123 158 -313 79 -467 -23 -47 -352 -477
-363 -475 -15 2 -344 434 -367 481 -73 155 -41 338 80 459 102 102 225 141
364 114z"/>
<path d="M3930 4319 c-30 -5 -98 -24 -152 -43 -250 -85 -454 -264 -573 -501
-162 -321 -148 -686 37 -991 34 -58 666 -874 722 -932 45 -48 83 -65 146 -65
65 0 101 17 151 70 20 21 172 214 339 428 167 215 316 406 332 427 39 50 114
193 138 264 41 117 50 181 50 338 0 190 -24 300 -99 451 -140 282 -399 482
-706 546 -98 20 -286 24 -385 8z m338 -663 c81 -37 161 -122 193 -203 30 -80
30 -196 0 -276 -31 -81 -112 -166 -193 -203 -56 -26 -74 -29 -158 -29 -84 0
-103 3 -157 29 -150 69 -240 237 -213 400 23 141 113 246 259 302 23 8 68 13
121 11 69 -2 97 -8 148 -31z"/>
<path d="M2590 3446 c-43 -14 -77 -69 -66 -109 9 -36 59 -92 96 -107 63 -26
130 20 130 90 0 32 -7 48 -35 79 -45 49 -79 62 -125 47z"/>
<path d="M1220 3324 c-14 -2 -58 -9 -98 -15 -391 -58 -763 -326 -956 -689
-194 -366 -205 -809 -30 -1180 59 -125 87 -167 222 -343 70 -90 125 -152 141
-158 53 -21 118 12 135 68 11 35 -15 80 -124 221 -56 73 -122 168 -146 210
-118 207 -169 446 -145 675 54 499 417 897 907 993 114 23 329 23 432 0 359
-79 636 -292 792 -609 170 -347 154 -742 -44 -1077 -25 -41 -146 -205 -271
-365 -125 -159 -322 -412 -438 -562 -117 -150 -222 -278 -235 -284 -35 -20
-57 -1 -183 161 -62 79 -122 152 -133 162 -34 28 -92 23 -127 -11 -38 -38 -39
-84 -3 -137 58 -85 238 -306 268 -329 102 -78 236 -70 330 18 47 44 831 1046
924 1179 275 399 305 941 75 1368 -69 128 -127 204 -243 321 -245 246 -542
373 -895 384 -71 2 -141 2 -155 -1z"/>
<path d="M2871 3103 c-46 -43 -46 -101 0 -144 71 -66 182 -8 165 86 -15 78
-109 110 -165 58z"/>
<path d="M1242 2760 c-308 -42 -558 -262 -644 -567 -28 -101 -30 -276 -4 -373
88 -323 330 -538 655 -581 328 -44 666 150 794 456 46 110 60 182 61 305 0
178 -49 321 -160 469 -155 207 -443 326 -702 291z m247 -217 c95 -26 172 -72
247 -147 98 -98 147 -197 164 -332 33 -262 -125 -512 -381 -601 -106 -36 -252
-36 -358 0 -209 73 -349 244 -381 464 -37 263 133 528 395 613 88 29 217 30
314 3z"/>
<path d="M3538 1581 c-50 -32 -58 -46 -58 -98 0 -47 45 -93 92 -93 41 0 123
49 133 79 16 50 9 84 -24 113 -41 37 -83 37 -143 -1z"/>
<path d="M3151 1340 c-70 -51 -78 -116 -19 -165 36 -30 66 -32 117 -5 81 41
104 111 55 169 -36 43 -94 43 -153 1z"/>
<path d="M2791 1117 c-80 -40 -102 -118 -50 -173 33 -35 71 -39 124 -13 59 30
76 49 82 98 5 36 2 44 -30 76 -41 41 -65 43 -126 12z"/>
<path d="M2408 880 c-79 -42 -100 -112 -52 -169 36 -43 94 -43 152 -1 73 53
82 102 28 156 -40 40 -72 43 -128 14z"/>
<path d="M743 805 c-46 -20 -68 -68 -54 -116 22 -72 108 -94 162 -40 39 40 40
89 2 130 -34 36 -68 44 -110 26z"/>
</g>
</svg>
