<?xml version="1.0" standalone="no"?>
<!DOCTYPE svg PUBLIC "-//W3C//DTD SVG 20010904//EN"
 "http://www.w3.org/TR/2001/REC-SVG-20010904/DTD/svg10.dtd">
<svg version="1.0" xmlns="http://www.w3.org/2000/svg"
 width="512.000000pt" height="512.000000pt" viewBox="0 0 512.000000 512.000000"
 preserveAspectRatio="xMidYMid meet">

<g transform="translate(0.000000,512.000000) scale(0.100000,-0.100000)"
fill="#000000" stroke="none">
<path d="M1584 4946 c-96 -31 -182 -118 -210 -214 -11 -36 -14 -177 -14 -709
l0 -663 -190 0 c-165 0 -198 -3 -253 -21 -120 -39 -217 -136 -256 -256 -21
-63 -21 -74 -21 -1151 0 -1171 -1 -1142 51 -1244 28 -55 114 -138 167 -162 41
-18 42 -21 35 -50 -42 -165 64 -310 227 -310 70 0 114 16 163 63 51 47 72 98
71 178 l0 73 327 0 328 0 -6 -55 c-15 -141 93 -259 237 -259 168 0 277 154
225 319 -5 17 1 24 37 40 24 10 68 44 98 74 49 49 65 74 106 168 9 20 23 15
379 -156 689 -331 775 -371 794 -371 47 0 28 -37 691 1340 389 809 393 818
386 843 -3 12 -11 30 -18 39 -13 17 -1432 705 -1503 728 -46 15 -131 8 -174
-14 -70 -37 -92 -74 -316 -541 l-220 -458 -5 439 c-5 407 -7 442 -25 487 -45
109 -142 200 -252 236 -55 18 -88 21 -253 21 l-190 0 -2 683 -3 682 -24 50
c-32 63 -93 125 -155 155 -60 28 -171 36 -232 16z m163 -163 c19 -9 47 -34 61
-56 l27 -41 3 -663 3 -663 -161 0 -160 0 2 668 3 669 27 35 c49 64 125 84 195
51z m-387 -1783 l0 -200 80 0 80 0 0 200 0 200 160 0 160 0 0 -200 0 -200 80
0 80 0 0 201 0 201 193 -4 c211 -3 239 -10 298 -75 67 -71 64 -37 67 -691 l3
-594 -147 -305 c-155 -322 -167 -358 -145 -438 21 -78 62 -119 181 -180 106
-54 110 -57 104 -83 -17 -70 -64 -130 -129 -165 -40 -22 -42 -22 -745 -22
-703 0 -705 0 -745 22 -47 25 -85 64 -111 113 -18 34 -19 81 -19 1140 0 1059
1 1106 19 1140 35 66 87 110 156 131 14 4 105 8 203 8 l177 1 0 -200z m2210
-48 c341 -163 1195 -574 1198 -577 2 -2 -56 -136 -62 -142 -7 -7 -1383 661
-1398 679 -38 44 -3 128 54 128 13 0 106 -40 208 -88z m-337 -185 c18 -13 226
-116 462 -230 835 -400 930 -446 933 -455 2 -8 -774 -1630 -788 -1645 -10 -12
-1380 647 -1402 674 -10 12 -18 31 -18 42 0 18 769 1635 778 1637 2 0 18 -10
35 -23z"/>
<path d="M1120 1720 l0 -920 80 0 80 0 0 920 0 920 -80 0 -80 0 0 -920z"/>
<path d="M1600 1720 l0 -920 80 0 80 0 0 920 0 920 -80 0 -80 0 0 -920z"/>
<path d="M2080 1720 l0 -920 80 0 80 0 0 920 0 920 -80 0 -80 0 0 -920z"/>
<path d="M3455 2321 c-282 -81 -459 -364 -401 -641 57 -271 275 -451 546 -452
299 -1 537 223 557 522 17 266 -160 506 -422 575 -77 20 -204 18 -280 -4z m91
-223 c-45 -46 -90 -96 -101 -111 l-20 -29 -67 31 c-38 16 -68 34 -68 39 0 10
55 62 98 92 45 30 136 59 193 59 l45 1 -80 -82z m174 -204 c-6 -29 -15 -56
-20 -59 -14 -8 -120 44 -120 59 0 8 33 48 73 88 l72 73 3 -53 c2 -30 -2 -78
-8 -108z m252 36 c16 -41 22 -77 22 -142 1 -47 -2 -89 -5 -92 -6 -6 -139 51
-139 59 0 2 9 41 20 87 11 46 20 112 20 148 l1 65 30 -35 c16 -19 39 -59 51
-90z m-687 -82 c36 -18 65 -37 65 -43 0 -5 -7 -35 -15 -65 -8 -30 -18 -93 -22
-139 l-6 -85 -29 34 c-31 38 -62 112 -73 178 -7 40 1 152 11 152 2 0 33 -14
69 -32z m286 -138 l60 -31 -23 -32 c-28 -40 -118 -127 -131 -127 -6 0 -8 27
-4 73 7 71 23 147 33 147 2 0 32 -14 65 -30z m274 -132 c36 -18 65 -38 65 -44
0 -19 -78 -82 -136 -110 -49 -24 -180 -52 -191 -41 -3 3 24 33 60 66 35 34 80
83 98 111 19 27 35 50 36 50 2 0 32 -14 68 -32z"/>
<path d="M2858 1165 c-20 -41 -29 -68 -23 -74 14 -13 705 -344 709 -340 17 19
66 133 59 140 -11 10 -693 339 -705 339 -4 0 -23 -29 -40 -65z"/>
<path d="M2395 4954 c-148 -15 -236 -27 -240 -34 -6 -10 11 -139 19 -147 3 -3
47 0 98 7 51 8 190 14 308 14 l215 1 5 73 c3 41 2 76 -3 79 -10 6 -351 12
-402 7z"/>
<path d="M3832 4846 l-229 -114 -59 35 c-108 66 -169 92 -235 102 -134 22
-264 -26 -367 -133 -67 -70 -78 -105 -44 -144 23 -28 1356 -842 1407 -860 50
-18 129 -11 181 16 52 27 381 359 389 394 9 37 -6 62 -94 151 -74 77 -115 107
-145 107 -8 0 -62 -32 -121 -71 -59 -38 -113 -68 -119 -66 -25 10 -351 228
-354 237 -2 5 37 62 86 127 106 141 116 158 108 190 -13 49 -117 143 -160 143
-8 0 -118 -51 -244 -114z m103 -213 c-94 -124 -106 -153 -86 -192 15 -28 523
-361 551 -361 14 0 68 28 122 65 54 36 101 65 106 65 5 0 19 -11 33 -26 l23
-25 -141 -141 c-126 -125 -145 -140 -170 -136 -28 4 -1278 763 -1278 776 0 15
83 52 130 57 66 9 105 -6 242 -88 61 -37 120 -67 131 -67 11 0 110 45 219 99
109 55 201 100 206 100 4 1 -35 -56 -88 -126z"/>
<path d="M1055 4428 c-464 -369 -779 -924 -872 -1538 -23 -158 -24 -501 0
-661 22 -145 65 -324 112 -459 38 -109 109 -270 120 -270 5 0 126 59 133 65 1
1 -11 32 -27 69 -83 184 -143 388 -177 601 -25 154 -25 486 -1 645 65 412 226
778 483 1096 84 104 260 277 352 346 34 26 62 51 62 55 -1 11 -83 123 -90 123
-3 0 -45 -33 -95 -72z"/>
<path d="M2580 4024 c-80 -21 -171 -69 -232 -124 -61 -54 -99 -75 -151 -85
l-37 -7 0 -79 0 -79 28 0 c40 0 131 28 171 53 19 12 57 41 85 65 27 25 79 59
115 76 59 28 75 31 161 31 86 0 101 -3 161 -31 36 -18 91 -54 122 -82 70 -64
106 -82 171 -89 68 -7 125 10 183 54 35 27 58 37 85 37 34 1 47 -9 160 -120
68 -67 158 -149 201 -182 235 -185 547 -308 854 -337 l72 -7 16 -71 c16 -70
41 -230 47 -297 2 -19 6 -34 11 -32 4 1 33 2 65 2 90 0 89 -3 68 157 -19 149
-66 345 -116 488 -45 127 -111 267 -124 261 -6 -2 -39 -16 -73 -31 l-62 -27
16 -37 c54 -123 92 -218 93 -230 0 -17 -76 -9 -216 24 -273 64 -481 186 -723
421 -93 90 -165 151 -192 164 -86 39 -203 18 -272 -48 -20 -19 -38 -27 -66
-27 -32 0 -47 9 -100 56 -69 63 -158 111 -246 134 -74 19 -202 18 -275 -1z"/>
<path d="M3116 394 c-114 -30 -247 -53 -418 -70 l-58 -5 0 -80 0 -79 73 6
c144 11 305 37 436 70 74 18 138 37 142 41 9 9 -30 154 -40 152 -3 -1 -64 -17
-135 -35z"/>
</g>
</svg>
